HIERARCHY
ROOT Hips
{
	OFFSET 0.00 0.00 0.00
	CHANNELS 6 Xposition Yposition Zposition Xrotation Yrotation Zrotation
	JOINT Spine
	{
		OFFSET 0.00000 7.06766 0.00000
		CHANNELS 3 Xrotation Yrotation Zrotation
		JOINT Head
		{
			OFFSET 0.00000 15.03989 0.00000
			CHANNELS 3 Xrotation Yrotation Zrotation
			End Site
			{
				OFFSET 0.00000 4.52755 0.00000
			}
		}
		JOINT LeftShoulder
		{
			OFFSET 0.00000 10.53037 0.00000
			CHANNELS 3 Xrotation Yrotation Zrotation
			JOINT LeftArm
			{
				OFFSET 7.02886 0.00000 0.00000
				CHANNELS 3 Xrotation Yrotation Zrotation
				JOINT LeftForeArm
				{
					OFFSET 10.79770 0.00000 0.00000
					CHANNELS 3 Yrotation Zrotation Xrotation
					JOINT LeftHand
					{
						OFFSET 7.90744 0.00000 0.00000
						CHANNELS 3 Xrotation Yrotation Zrotation
						JOINT LeftHandThumb1
						{
							OFFSET 0.00000 0.00000 0.00000
							CHANNELS 3 Xrotation Zrotation Yrotation
							End Site
							{
								OFFSET 0.00000 0.00000 3.93700
							}
						}
						End Site
						{
							OFFSET 3.93700 0.00000 0.00000
						}
					}
				}
			}
		}
		JOINT RightShoulder
		{
			OFFSET 0.00000 10.53037 0.00000
			CHANNELS 3 Xrotation Yrotation Zrotation
			JOINT RightArm
			{
				OFFSET -7.02886 0.00000 0.00000
				CHANNELS 3 Xrotation Yrotation Zrotation
				JOINT RightForeArm
				{
					OFFSET -10.79770 0.00000 0.00000
					CHANNELS 3 Yrotation Zrotation Xrotation
					JOINT RightHand
					{
						OFFSET -7.90744 0.00000 0.00000
						CHANNELS 3 Xrotation Yrotation Zrotation
						JOINT RightHandThumb1
						{
							OFFSET 0.00000 0.00000 0.00000
							CHANNELS 3 Xrotation Zrotation Yrotation
							End Site
							{
								OFFSET 0.00000 0.00000 3.93700
							}
						}
						End Site
						{
							OFFSET -3.93700 0.00000 0.00000
						}
					}
				}
			}
		}
	}
	JOINT LeftUpLeg
	{
		OFFSET 4.01300 0.00000 0.00000
		CHANNELS 3 Xrotation Yrotation Zrotation
		JOINT LeftLeg
		{
			OFFSET 0.00000 -16.89976 0.00000
			CHANNELS 3 Xrotation Yrotation Zrotation
			JOINT LeftFoot
			{
				OFFSET 0.00000 -17.38918 0.00000
				CHANNELS 3 Xrotation Yrotation Zrotation
				JOINT LeftToeBase
				{
					OFFSET 0.00000 -1.27456 4.75673
					CHANNELS 3 Xrotation Yrotation Zrotation
					End Site
					{
						OFFSET 0.00000 0.00000 2.95275
					}
				}
			}
		}
	}
	JOINT RightUpLeg
	{
		OFFSET -4.01300 0.00000 0.00000
		CHANNELS 3 Xrotation Yrotation Zrotation
		JOINT RightLeg
		{
			OFFSET 0.00000 -16.89976 0.00000
			CHANNELS 3 Xrotation Yrotation Zrotation
			JOINT RightFoot
			{
				OFFSET 0.00000 -17.38918 0.00000
				CHANNELS 3 Xrotation Yrotation Zrotation
				JOINT RightToeBase
				{
					OFFSET 0.00000 -1.27456 4.75673
					CHANNELS 3 Xrotation Yrotation Zrotation
					End Site
					{
						OFFSET 0.00000 0.00000 2.95275
					}
				}
			}
		}
	}
}
MOTION
Frames: 7
Frame Time: 0.008333
 15.2434 31.6171 -18.6944 119.6024 36.0913 -126.6287 51.5100 -12.4087 2.7087 7.5179 -29.2159 39.9223 -37.0246 -23.2969 6.5056 -1.8471 -47.6444 -40.7275 -10.0829 -0.0000 9.5474 3.8595 -9.4300 22.3800 33.1476 -0.0000 26.2537 -0.5598 -1.7931 -1.2678 -33.7555 -17.4531 32.1478 10.3101 0.0000 3.8806 -8.0841 -13.3355 -31.6253 32.8623 0.0000 -24.3270 -18.6538 19.1340 0.9666 -2.8318 0.0000 0.0000 -32.8692 27.9071 -1.2873 28.4501 0.0000 -0.0000 -83.6670 -7.8146 -10.7759 16.0064 0.0000 -0.0000 6.7796 -29.7042 2.8997 25.7753 0.0000 -0.0000
 15.2890 31.6070 -18.7178 119.7587 36.0921 -127.0098 51.2782 -11.8879 3.1260 6.5468 -29.0017 39.2301 -37.2308 -23.0128 6.4203 -2.7542 -46.7689 -42.8113 -9.5232 -0.0000 8.4970 3.7309 -9.1025 22.4009 33.1476 -0.0000 26.2537 -0.7479 -1.4429 -1.1807 -34.2478 -16.8264 32.2766 10.1249 0.0000 3.9299 -7.8088 -13.2194 -30.9508 32.8623 0.0000 -24.3270 -18.6653 19.0487 1.2401 -2.7160 -0.0000 -0.0000 -33.0122 27.8301 -1.2350 28.4850 0.0000 0.0000 -83.8985 -7.9498 -10.9513 16.8906 0.0000 0.0000 6.2345 -29.5419 3.0605 25.8834 0.0000 -0.0000
 15.3310 31.5983 -18.7390 119.8372 36.0803 -127.3098 51.0026 -11.2917 3.4927 5.6476 -28.9423 38.5712 -37.6876 -22.7648 6.1996 -3.4457 -45.7565 -44.8375 -9.0849 -0.0000 7.9727 3.6985 -9.2321 21.9451 33.1476 -0.0000 26.2537 -0.9084 -1.2041 -1.1630 -34.6841 -16.1929 32.5181 9.9410 0.0000 3.8653 -7.5443 -12.9779 -30.5291 32.8623 0.0000 -24.3270 -18.7399 19.0427 1.5005 -2.5697 -0.0000 0.0000 -33.1698 27.7003 -1.1854 28.5248 0.0000 -0.0000 -84.1988 -8.0353 -11.0786 17.8062 0.0000 -0.0000 5.8544 -29.4434 3.5132 25.6665 0.0000 -0.0000
 15.3754 31.5893 -18.7663 119.9443 36.0772 -127.5995 50.7578 -10.7965 3.8691 4.7595 -28.8176 37.9053 -37.8715 -22.3759 6.0585 -4.2942 -44.6650 -46.7142 -8.7731 -0.0000 7.1928 3.5902 -8.9313 22.0059 33.1476 -0.0000 26.2537 -1.0307 -0.9086 -1.2051 -35.2896 -15.7235 32.7696 9.9453 0.0000 4.1022 -7.4170 -13.0134 -30.0327 32.8623 0.0000 -24.3270 -18.7683 19.0903 1.7217 -2.4448 -0.0000 0.0000 -33.2784 27.5446 -1.2109 28.6455 0.0000 -0.0000 -84.4856 -8.0838 -11.2323 18.7364 0.0000 -0.0000 5.3460 -29.3147 3.7187 25.9930 0.0000 -0.0000
 15.4173 31.5794 -18.7962 120.0746 36.0050 -127.8635 50.4661 -10.3321 4.2717 3.8599 -28.6725 37.2501 -37.9943 -21.9358 5.8657 -5.0138 -43.5977 -48.3816 -8.5774 -0.0000 6.7545 3.5137 -8.7651 21.9466 33.1476 -0.0000 26.2537 -1.1300 -0.6874 -1.2572 -35.8348 -15.1421 33.0580 9.8566 0.0000 4.2798 -7.2578 -12.8513 -29.7948 32.8623 0.0000 -24.3270 -18.8305 19.0543 1.8800 -2.3016 0.0000 0.0000 -33.3512 27.4561 -1.2555 28.5783 -0.0000 0.0000 -84.8792 -8.1253 -11.4643 19.7367 -0.0000 0.0000 4.9233 -29.2517 4.1231 25.9390 0.0000 -0.0000
 15.4615 31.5646 -18.8329 120.2109 35.9568 -128.0520 50.1767 -9.9721 4.5881 3.0345 -28.4173 36.6854 -37.9567 -21.3717 5.6908 -5.7981 -42.5207 -49.9142 -8.4579 -0.0000 6.7795 3.4299 -8.6518 21.7232 33.1476 -0.0000 26.2537 -1.5116 -0.3092 -1.2677 -35.7382 -14.5146 33.3063 9.9545 0.0000 4.1069 -7.2114 -12.7501 -29.8267 32.8623 0.0000 -24.3270 -18.8164 19.0757 1.9562 -2.1740 0.0000 -0.0000 -33.3937 27.3496 -1.3924 28.6356 -0.0000 0.0000 -85.2779 -8.0900 -11.6972 20.7691 0.0000 0.0000 4.4665 -29.1479 4.3806 25.8925 0.0000 -0.0000
 15.5102 31.5479 -18.8597 120.2942 35.9391 -128.2235 49.8842 -9.4769 4.8384 2.3077 -28.3545 36.1854 -37.7755 -20.8015 5.4935 -6.4330 -41.6567 -51.1187 -8.4818 -0.0000 6.5591 3.3215 -8.4573 21.5347 33.1476 -0.0000 26.2537 -1.5776 -0.1577 -1.3035 -36.4934 -14.0751 33.5905 9.9289 0.0000 4.5716 -7.1361 -12.6035 -29.8455 32.8623 0.0000 -24.3270 -18.8114 19.1304 2.0895 -2.0602 -0.0000 -0.0000 -33.4251 27.2517 -1.5432 28.6354 0.0000 0.0000 -85.6904 -8.0581 -11.8515 21.8249 0.0000 -0.0000 4.1245 -29.1158 4.7482 25.7504 -0.0000 0.0000
